<svg width="78" height="90" viewBox="0 0 78 90" xmlns="http://www.w3.org/2000/svg">
  <g fill="#fff" fill-rule="evenodd">
    <path d="M76.434 36.44L65.407 25.415c-.75-.747-1.96-.747-2.708 0-.388.386-.572.895-.558 1.4v5.24H48.514c-.818 0-1.48.663-1.48 1.48v9.874c0 .816.662 1.48 1.48 1.48H62.14v5.28c0 .49.187.98.56 1.357.75.748 1.96.748 2.71 0L76.433 40.5c.54-.54.84-1.262.84-2.03 0-.767-.3-1.488-.84-2.03z"/>
    <path d="M51.47 71.2c0 .237-.192.434-.432.434H38.504V15.83c0-1.2-.908-2.522-2.03-2.954L16.805 5.31H51.04c.237 0 .433.196.433.435v19.66h5.312V2.566C56.78 1.15 55.632 0 54.214 0H2.642c-.097.006-.16.015-.225.02-.063.01-.127.013-.19.028-.042.01-.084.027-.127.04-.077.02-.154.043-.227.075-.03.014-.06.033-.088.048-.08.042-.158.082-.23.13-.034.024-.063.053-.096.08-.064.05-.128.1-.185.154-.032.035-.058.073-.088.11-.05.06-.102.117-.145.183C1.018.903 1.002.94.98.98c-.042.072-.084.146-.115.226-.026.06-.032.104-.044.142-.02.073-.045.145-.058.218-.014.07-.018.14-.022.212-.004.048-.014.09-.014.138V75.03c.004.105.015.182.026.257.006.05.008.102.02.152.013.062.036.118.056.18.02.062.033.12.058.174.023.054.055.1.083.153.03.055.057.115.093.168.035.05.076.094.116.14.04.05.075.1.12.142.04.04.086.07.13.106.052.043.104.09.16.127.04.026.083.046.123.065.072.04.142.08.218.11.02.01 25.29 9.73 33.807 13.01 1.527.587 2.766-.265 2.766-1.898V76.943h15.71c1.418 0 2.564-1.148 2.564-2.565v-22.84H51.47V71.2z"/>
  </g>
</svg>
