<?xml version="1.0" standalone="no"?>
<!DOCTYPE svg PUBLIC "-//W3C//DTD SVG 20010904//EN"
 "http://www.w3.org/TR/2001/REC-SVG-20010904/DTD/svg10.dtd">
<svg version="1.0" xmlns="http://www.w3.org/2000/svg"
 width="16.000000pt" height="16.000000pt" viewBox="0 0 16.000000 16.000000"
 preserveAspectRatio="xMidYMid meet">
<metadata>
Created by potrace 1.11, written by Peter Selinger 2001-2013
</metadata>
<g transform="translate(0.000000,16.000000) scale(0.002286,-0.002286)"
fill="#000000" stroke="none">
<path d="M3298 6995 c-2 -2 -46 -6 -98 -10 -52 -3 -108 -9 -125 -12 -16 -2
-43 -6 -58 -8 -74 -10 -115 -17 -152 -25 -22 -5 -56 -12 -75 -15 -81 -14 -268
-65 -394 -107 -295 -98 -632 -267 -891 -446 -199 -137 -469 -379 -651 -582
-191 -213 -418 -567 -539 -840 -26 -58 -51 -114 -56 -125 -47 -103 -149 -428
-175 -560 -2 -11 -11 -54 -19 -95 -8 -41 -18 -91 -20 -110 -3 -19 -8 -48 -10
-65 -3 -16 -7 -55 -11 -85 -3 -30 -8 -71 -10 -90 -9 -60 -11 -491 -3 -575 17
-192 20 -214 54 -410 16 -93 71 -305 110 -426 176 -535 484 -1025 894 -1423
110 -107 101 -99 171 -156 30 -25 66 -55 80 -67 150 -130 486 -335 734 -450
198 -90 515 -197 679 -228 12 -3 56 -11 97 -20 90 -17 120 -23 180 -30 25 -3
55 -7 67 -9 135 -27 713 -26 846 0 12 2 42 7 67 10 39 5 179 30 275 49 134 26
429 121 591 191 273 116 606 311 790 463 17 14 42 35 55 45 123 98 352 320
454 440 367 430 639 971 759 1511 14 61 27 126 30 145 19 112 38 255 44 325
13 167 5 623 -13 710 -2 11 -7 41 -10 67 -41 349 -173 762 -354 1114 -423 817
-1144 1436 -2011 1724 -134 44 -346 101 -430 115 -19 3 -60 10 -90 15 -100 17
-194 30 -270 36 -56 5 -508 13 -512 9z m2074 -1917 c67 -20 123 -48 158 -77
143 -121 203 -243 201 -406 -1 -74 -1 -76 -20 -144 -32 -114 -21 -102 -1206
-1289 -627 -629 -1163 -1158 -1191 -1177 -28 -19 -84 -45 -125 -59 -63 -22
-87 -25 -169 -22 -101 4 -161 22 -248 72 -30 17 -299 279 -728 708 -723 723
-720 720 -759 853 -9 30 -16 89 -16 131 0 159 66 297 185 391 63 49 129 84
181 95 70 15 83 16 135 16 104 0 189 -25 276 -83 27 -17 260 -242 517 -499
258 -258 471 -468 474 -468 4 0 407 401 897 891 490 490 916 915 947 943 84
78 149 111 274 140 42 10 163 1 217 -16z"/>
</g>
</svg>
